# xmcd
#
# Track frame offsets:
#	150
#	15612
#	34640
#	57236
#	70287
#	87838
#	100417
#	114988
#	133752
#	156207
#	169900
#	186072
#	200294
#	214154
#	226648
#
# Disc length: 3189 seconds
#
# Revision: 1
# Processed by: cddbd v1.5.2PL0 Copyright (c) Steve Scherf et al.
# Submitted via: audiograbber 1.83.01
#
DISCID=c40c730f
DTITLE=Various Artist - The Essential Blues Vol. 2 CD2
DYEAR=1996
DGENRE=Blues
TTITLE0=Freddie King - Going Down
TTITLE1=Albert Collins - I Ain't Drunk
TTITLE2=Robert Cray - These Things
TTITLE3=Elmore James - Shake Your Moneymaker
TTITLE4=Magic Sam - All Your Love
TTITLE5=James Cotton - High Compression
TTITLE6=Sonny Boy Williamson - Help Me
TTITLE7=Willie Dixon - I Ain't Superstitious
TTITLE8=Koko Taylor - Wang Dang Doodle
TTITLE9=Otis Rush - I Can't Quit You Baby
TTITLE10=Muddy Waters - I Can't Be Satisfied
TTITLE11=Slim Harpo - I'm a King Bee
TTITLE12=Amos Milburn - Down the Road a Piece
TTITLE13=Earl Hooker - Blue Guitar
TTITLE14=B.B. King - Every Day I Have the Blues
EXTD=
EXTT0=
EXTT1=
EXTT2=
EXTT3=
EXTT4=
EXTT5=
EXTT6=
EXTT7=
EXTT8=
EXTT9=
EXTT10=
EXTT11=
EXTT12=
EXTT13=
EXTT14=
PLAYORDER=
